<svg viewBox="0 0 21 20" fill="none" xmlns="http://www.w3.org/2000/svg">
<path d="M0.00195312 10.002C0.00311667 14.9214 3.58036 19.1101 8.43895 19.881V12.892H5.90195V10.002H8.44195V7.80204C8.32841 6.75958 8.68448 5.72064 9.41359 4.96698C10.1427 4.21332 11.1693 3.82306 12.215 3.90204C12.9655 3.91417 13.7141 3.98101 14.455 4.10205V6.56104H13.191C12.7558 6.50405 12.3183 6.64777 12.0017 6.95171C11.6851 7.25566 11.5237 7.68693 11.563 8.12404V10.002H14.334L13.891 12.893H11.563V19.881C16.8174 19.0506 20.502 14.2518 19.9475 8.96112C19.3929 3.67041 14.7932 -0.260027 9.48078 0.0172227C4.16831 0.294472 0.0027976 4.68235 0.00195312 10.002Z" fill="#fff"/>
</svg>
