<svg xmlns="http://www.w3.org/2000/svg" viewBox="0 0 2076.24 549"><defs><style>.cls-1{fill:#3865f3;}.cls-2{fill:#fff;}</style></defs><g id="Layer_2" data-name="Layer 2"><g id="Layer_1-2" data-name="Layer 1"><circle class="cls-1" cx="274.5" cy="274.5" r="274.5"/><path class="cls-2" d="M157.76,408.82V145.06h48.36l2.93,28.82a141,141,0,0,1,41-24.66q22.95-9,52.75-9,42,0,65.21,24.91t23.2,69.85V408.82H338.49V237.38q0-28.81-13.68-41.52t-41-12.7a94.59,94.59,0,0,0-41,9A103.11,103.11,0,0,0,211,214.91V408.82Z"/><path class="cls-1" d="M717.48,423q-19.29,0-28.06-9.47t-8.77-27V233.64h37.89V377.09q0,15.78,15.43,15.79H750.1V423Z"/><path class="cls-1" d="M787.63,423V233.64h34.72l2.11,20.69a101.44,101.44,0,0,1,29.46-17.71q16.49-6.48,37.88-6.49,30.16,0,46.82,17.89t16.66,50.16V423H917.4V299.93q0-20.7-9.82-29.81T878.12,261a67.81,67.81,0,0,0-29.46,6.49,73.86,73.86,0,0,0-22.8,16.3V423Z"/><path class="cls-1" d="M1033.85,423,990,233.64h37.53L1055.6,369,1090,260.65v-27h27.36L1155.56,369l27.35-135.39h37.18L1176.6,423h-35.07l-35.08-120.66L1068.57,423Z"/><path class="cls-1" d="M1254.46,423V233.64h34.73l2.1,20.69a101.57,101.57,0,0,1,29.46-17.71q16.49-6.48,37.89-6.49,30.15,0,46.82,17.89t16.66,50.16V423h-37.88V299.93q0-20.7-9.82-29.81T1345,261a67.82,67.82,0,0,0-29.47,6.49,73.7,73.7,0,0,0-22.79,16.3V423Z"/><path class="cls-1" d="M1402.83,213.3a39.48,39.48,0,0,1-28.06-10.88,35.52,35.52,0,0,1-11.58-27q0-16.48,11.58-27.36a39.48,39.48,0,0,1,28.06-10.88q16.49,0,27.88,10.88t11.4,27.36a35.79,35.79,0,0,1-11.4,27Q1419.32,213.3,1402.83,213.3Zm0-21.75a15.25,15.25,0,0,0,11.4-4.91,15.75,15.75,0,0,0,4.73-11.22,16.58,16.58,0,0,0-4.73-11.93,15.29,15.29,0,0,0-11.4-4.91,16.43,16.43,0,0,0-11.75,4.91,16,16,0,0,0-5.09,11.93,15.21,15.21,0,0,0,5.09,11.22A16.39,16.39,0,0,0,1402.83,191.55ZM1538.21,423V303.79q0-14.39-3.15-23.85a24.39,24.39,0,0,0-11.93-14.21q-8.78-4.74-26-4.73a134,134,0,0,0-24.38,2.45,125.8,125.8,0,0,0-23.67,6.67V240.65a127.74,127.74,0,0,1,25.42-7.54,153.19,153.19,0,0,1,30-3q37.89,0,54.89,16.49t17,52.26V423Z"/><path class="cls-1" d="M1658.51,423q-19.29,0-28.06-9.47t-8.76-27V233.64h37.88V377.09q0,15.78,15.43,15.79h16.13V423Z"/><path class="cls-1" d="M1775.66,426.55q-32.62,0-56.82-10.53V385.86a128.81,128.81,0,0,0,23,7.37,112.2,112.2,0,0,0,24.73,2.8q23.85,0,37.88-6.66a39.71,39.71,0,0,0,20.17-21.57q6.14-14.91,6.14-39.46,0-36.48-14.91-51.91T1766.19,261a113.15,113.15,0,0,0-24.55,2.63,115.47,115.47,0,0,0-22.8,7.54V240.65a141.31,141.31,0,0,1,25.78-7.71,151.08,151.08,0,0,1,30-2.81q47,0,70,25.08t23,73.13q0,47.7-21.92,73T1775.66,426.55Z"/><path class="cls-1" d="M1755.67,205.23q-20.34,0-32.27-10.52t-11.93-29.82q0-19.27,12.1-30.86t34.55-11.58h86.28l-1.75,22.45h-81q-11.93,0-17.71,4.56t-5.79,15.43q0,18.6,20,18.59,10.17,0,14.38-4a14.11,14.11,0,0,0,4.21-10.7v-7.36h23.5v7.36q0,7.73,4,10.7t12.1,3h22.1v22.1h-24.55a45.23,45.23,0,0,1-15.61-2.63q-7.18-2.64-10-8.25-3.49,5.63-13.5,8.6A66.71,66.71,0,0,1,1755.67,205.23Z"/><path class="cls-1" d="M1989.61,426.55q-40.69,0-63.66-19.29t-23-57.88V233.64h38.23V350.79q0,23.5,12.45,34.37T1989.61,396q23.85,0,36.3-10.87t12.45-34.37V233.64h37.88V349.38q0,38.6-22.79,57.88T1989.61,426.55Z"/></g></g></svg>